<?xml version="1.0" standalone="no"?>
<!DOCTYPE svg PUBLIC "-//W3C//DTD SVG 20010904//EN"
 "http://www.w3.org/TR/2001/REC-SVG-20010904/DTD/svg10.dtd">
<svg version="1.0" xmlns="http://www.w3.org/2000/svg"
 width="512.000000pt" height="512.000000pt" viewBox="0 0 512.000000 512.000000"
 preserveAspectRatio="xMidYMid meet">

<g transform="translate(0.000000,512.000000) scale(0.100000,-0.100000)"
fill="#000000" stroke="none">
<path d="M1425 4833 c-117 -25 -248 -115 -309 -211 -106 -170 -1077 -1869
-1092 -1912 -28 -82 -26 -235 5 -314 18 -45 641 -1135 1042 -1821 86 -148 167
-223 294 -271 48 -18 93 -19 1195 -19 l1145 0 60 23 c66 25 155 87 202 142 17
19 174 283 348 585 175 303 416 719 535 926 120 207 228 402 241 435 34 86 33
243 -2 330 -13 34 -197 362 -409 729 -324 561 -390 670 -415 680 -35 16 -63 7
-89 -29 -17 -22 -18 -31 -9 -56 6 -16 182 -325 391 -687 223 -388 387 -681
396 -713 21 -70 20 -115 -3 -187 -24 -78 -1069 -1885 -1119 -1936 -20 -21 -62
-50 -92 -65 l-55 -27 -1125 0 -1125 0 -55 27 c-76 37 -118 84 -196 218 -379
654 -1004 1742 -1015 1770 -22 54 -17 185 8 240 49 105 1065 1849 1102 1892
24 27 66 59 99 75 l57 28 1125 0 1125 0 46 -21 c76 -35 125 -89 201 -218 39
-67 77 -127 86 -133 38 -31 105 -4 117 47 9 36 -125 267 -198 340 -58 59 -150
111 -227 129 -44 10 -2239 14 -2285 4z"/>
<path d="M1509 4496 c-55 -19 -104 -53 -131 -89 -14 -17 -246 -416 -517 -885
-384 -666 -495 -865 -504 -908 -21 -100 -10 -125 238 -556 124 -216 238 -403
251 -416 14 -12 36 -22 50 -22 31 0 74 42 74 73 0 12 -97 192 -216 398 -258
445 -260 449 -245 498 19 63 983 1722 1014 1745 l28 21 1009 0 1009 0 28 -21
c26 -20 108 -159 801 -1361 112 -193 207 -365 212 -382 5 -18 5 -44 -1 -63
-16 -58 -983 -1720 -1013 -1742 -27 -21 -34 -21 -1024 -24 -934 -2 -999 -1
-1032 15 -39 20 -39 20 -256 395 -80 139 -155 263 -167 275 -12 14 -32 23 -49
23 -35 0 -78 -40 -78 -72 0 -25 367 -667 402 -705 12 -13 49 -37 82 -53 l59
-30 1027 0 1027 0 61 31 c34 16 72 43 85 58 13 16 247 416 521 890 392 678
499 873 509 916 22 108 31 91 -504 1018 -271 468 -505 868 -520 888 -15 19
-51 48 -81 65 l-53 29 -1030 2 c-825 2 -1037 0 -1066 -11z"/>
<path d="M2355 3886 c-560 -93 -992 -508 -1112 -1066 -25 -119 -25 -401 0
-520 103 -480 439 -859 900 -1013 153 -52 227 -62 432 -61 178 1 197 3 305 31
265 70 469 190 651 381 191 201 309 441 355 722 19 116 13 356 -11 470 -56
260 -181 487 -369 676 -189 188 -416 312 -676 369 -102 22 -371 28 -475 11z
m417 -496 c307 -80 537 -312 620 -624 30 -113 30 -299 0 -412 -83 -314 -312
-543 -626 -626 -113 -30 -299 -30 -412 0 -314 83 -543 312 -626 627 -30 112
-30 306 1 419 29 107 88 226 155 311 70 87 81 112 66 144 -13 29 0 46 83 101
l59 39 28 -21 c32 -24 38 -23 160 21 47 16 114 35 150 40 89 13 253 4 342 -19z"/>
</g>
</svg>
